<svg width="30" height="30" viewBox="0 0 30 30" fill="none" xmlns="http://www.w3.org/2000/svg">
<path d="M16.6087 14.985C16.6087 19.2509 13.174 22.7091 8.93726 22.7091C4.70052 22.7091 1.2655 19.2509 1.2655 14.985C1.2655 10.7191 4.70025 7.26059 8.93726 7.26059C13.1742 7.26059 16.6087 10.7191 16.6087 14.985Z" fill="currentColor"/>
<path d="M25.0246 14.985C25.0246 19.0005 23.3072 22.2569 21.1887 22.2569C19.0702 22.2569 17.3528 19.0005 17.3528 14.985C17.3528 10.9695 19.07 7.71304 21.1885 7.71304C23.307 7.71304 25.0243 10.9685 25.0243 14.985" fill="currentColor"/>
<path d="M28.467 14.985C28.467 18.5819 27.8631 21.4995 27.118 21.4995C26.3727 21.4995 25.7691 18.5827 25.7691 14.985C25.7691 11.3874 26.373 8.47049 27.118 8.47049C27.8629 8.47049 28.467 11.3871 28.467 14.985Z" fill="currentColor"/>
</svg>
